# xmcd CD database file
# Copyright (C) 1993-1998 Ti Kan
#
# Track frame offsets:
#	150
#	12908
#	23475
#	34563
#	48345
#	55305
#	77148
#	89405
#	108273
#	119968
#	137285
#	151850
#	167033
#	183218
#	198713
#	207513
#	218790
#	233943
#	247963
#	268963
#	278668
#
# Disc length: 3987 seconds
#
# Revision: 1
# Processed by: cddbd v1.4b41PL1 Copyright (c) Steve Scherf et al.
# Submitted via: NotifyCDPlayer(CDDB) 1.51.3
#
DISCID=230f9115
DTITLE=Little Willie Littlefield - I'm in the Mood
DYEAR=1900
DGENRE=
TTITLE0=Farmsound Boogie
TTITLE1=Houseparty
TTITLE2=Holland Boogie Wiggle
TTITLE3=Beggin'
TTITLE4=Chief Boogie Woogie
TTITLE5=Raining
TTITLE6=Walking through the Streets
TTITLE7=Just Relax
TTITLE8=Willie rolls the Boogie Woogie
TTITLE9=Then I Wonder
TTITLE10=Jump the Boogie Woogie
TTITLE11=Rollin' the Basses
TTITLE12=Boogie Woogie Playgirl
TTITLE13=The Breeze
TTITLE14=Little Willie's Boogie
TTITLE15=Ain't a better story to be told
TTITLE16=Riffin' Along
TTITLE17=One more Drink
TTITLE18=Found my Baby
TTITLE19=A little Cure
TTITLE20=Jive at Five
EXTD=ADD\nOLCD 7002\nMartin van Olderen Production\n(P) 1982-1983\n(C) 1993
EXTT0=
EXTT1=
EXTT2=
EXTT3=
EXTT4=
EXTT5=
EXTT6=
EXTT7=
EXTT8=
EXTT9=
EXTT10=
EXTT11=
EXTT12=
EXTT13=
EXTT14=
EXTT15=
EXTT16=
EXTT17=
EXTT18=
EXTT19=
EXTT20=
PLAYORDER=
